<?xml version="1.0" standalone="no"?>
<!DOCTYPE svg PUBLIC "-//W3C//DTD SVG 20010904//EN"
 "http://www.w3.org/TR/2001/REC-SVG-20010904/DTD/svg10.dtd">
<svg version="1.0" xmlns="http://www.w3.org/2000/svg"
 width="796.000000pt" height="796.000000pt" viewBox="0 0 796.000000 796.000000"
 preserveAspectRatio="xMidYMid meet">
<metadata>
Created by potrace 1.14, written by Peter Selinger 2001-2017
</metadata>
<g transform="translate(0.000000,796.000000) scale(0.100000,-0.100000)"
fill="#000000" stroke="none">
<path d="M1372 7075 c-44 -20 -162 -134 -707 -678 -569 -570 -655 -659 -661
-691 -9 -52 17 -116 58 -141 32 -19 97 -19 3238 -20 2501 0 3213 2 3243 12 20
7 37 9 37 6 0 -3 8 1 18 10 10 10 21 15 23 12 3 -2 303 294 666 658 448 448
664 671 668 690 11 43 -4 96 -37 130 l-30 32 -3231 2 -3232 3 -53 -25z"/>
<path d="M99 4767 c-69 -18 -109 -88 -93 -161 5 -24 162 -186 668 -691 612
-611 665 -662 714 -679 51 -18 167 -18 3261 -18 2975 0 3210 1 3240 16 59 31
85 99 61 162 -6 15 -305 321 -664 680 -668 669 -681 681 -766 691 -67 8 -6390
8 -6421 0z"/>
<path d="M1408 2403 c-27 -7 -56 -18 -65 -25 -9 -7 -314 -309 -677 -670 l-661
-658 -1 -54 c-1 -50 2 -59 33 -93 l35 -38 3227 -2 c3405 -3 3256 -5 3326 41
52 34 1315 1304 1326 1333 18 48 3 108 -37 142 -19 17 -42 31 -52 32 -9 0
-1455 2 -3211 2 -2509 2 -3205 -1 -3243 -10z"/>
</g>
</svg>
